<?xml version="1.0" encoding="utf-8"?>
<!-- Svg Vector Icons : http://www.onlinewebfonts.com/icon -->
<!DOCTYPE svg PUBLIC "-//W3C//DTD SVG 1.1//EN" "http://www.w3.org/Graphics/SVG/1.1/DTD/svg11.dtd">
<svg version="1.1" xmlns="http://www.w3.org/2000/svg" xmlns:xlink="http://www.w3.org/1999/xlink" x="0px" y="0px" viewBox="0 0 256 256" enable-background="new 0 0 256 256" xml:space="preserve">
<metadata> Svg Vector Icons : http://www.onlinewebfonts.com/icon </metadata>
<g><g><g><path fill="#000000" d="M31.9,2.7c-4.4,0.8-10.3,4.1-13.8,7.5c-3.6,3.6-6.7,9.4-7.6,14.2c-0.4,2-0.5,34.3-0.5,103.7c0,85.6,0.1,101.3,0.7,104.2c2.1,10,10.8,18.6,20.7,20.7c5,1.1,188,1.1,193,0c10-2.1,18.6-10.8,20.7-20.7c1.1-5,1.1-203.7,0-208.7c-2.1-10-10.8-18.6-20.7-20.7c-2.9-0.6-17.4-0.7-96.7-0.7C71.7,2.2,33.3,2.4,31.9,2.7z M221.1,19.4c3.3,1.7,6,4.5,7.6,7.8c1.2,2.6,1.3,3.1,1.4,12.4l0.2,9.7H128H25.7l0.1-10c0.1-9.6,0.2-10,1.5-12.4c2.2-4.1,6-7.3,10.2-8.7c0.7-0.2,41.7-0.3,91.2-0.3l89.9,0.1L221.1,19.4z M230.1,145.5L230,226l-1.3,2.7c-1.6,3.4-4.4,6.2-7.8,7.8l-2.7,1.3h-90.4H37.3l-2.6-1.3c-3.2-1.7-5.7-4.2-7.4-7.4l-1.3-2.6l-0.1-80.8L25.7,65H128h102.2L230.1,145.5z"/><path fill="#000000" d="M88.6,104.4v7.9h7.9h7.9v-7.9v-7.9h-7.9h-7.9V104.4z"/><path fill="#000000" d="M120.1,104.4v7.9h7.9h7.9v-7.9v-7.9H128h-7.9V104.4z"/><path fill="#000000" d="M151.6,104.4v7.9h7.9h7.9v-7.9v-7.9h-7.9h-7.9V104.4z"/><path fill="#000000" d="M183,104.4v7.9h7.9h7.9v-7.9v-7.9h-7.9H183V104.4z"/><path fill="#000000" d="M57.2,135.8v7.9H65h7.9v-7.9v-7.9H65h-7.9V135.8z"/><path fill="#000000" d="M88.6,135.8v7.9h7.9h7.9v-7.9v-7.9h-7.9h-7.9V135.8z"/><path fill="#000000" d="M120.1,135.8v7.9h7.9h7.9v-7.9v-7.9H128h-7.9V135.8z"/><path fill="#000000" d="M151.6,135.8v7.9h7.9h7.9v-7.9v-7.9h-7.9h-7.9V135.8z"/><path fill="#000000" d="M183,135.8v7.9h7.9h7.9v-7.9v-7.9h-7.9H183V135.8z"/><path fill="#000000" d="M57.2,167.3v7.9H65h7.9v-7.9v-7.9H65h-7.9V167.3z"/><path fill="#000000" d="M88.6,167.3v7.9h7.9h7.9v-7.9v-7.9h-7.9h-7.9V167.3z"/><path fill="#000000" d="M120.1,167.3v7.9h7.9h7.9v-7.9v-7.9H128h-7.9V167.3z"/><path fill="#000000" d="M151.6,167.3v7.9h7.9h7.9v-7.9v-7.9h-7.9h-7.9V167.3z"/><path fill="#000000" d="M183,167.3v7.9h7.9h7.9v-7.9v-7.9h-7.9H183V167.3z"/><path fill="#000000" d="M57.2,198.7v7.9H65h7.9v-7.9v-7.9H65h-7.9V198.7z"/><path fill="#000000" d="M88.6,198.7v7.9h7.9h7.9v-7.9v-7.9h-7.9h-7.9V198.7z"/><path fill="#000000" d="M120.1,198.7v7.9h7.9h7.9v-7.9v-7.9H128h-7.9V198.7z"/><path fill="#000000" d="M151.6,198.7v7.9h7.9h7.9v-7.9v-7.9h-7.9h-7.9V198.7z"/><path fill="#000000" d="M183,198.7v7.9h7.9h7.9v-7.9v-7.9h-7.9H183V198.7z"/></g></g></g>
</svg>